<svg xmlns="http://www.w3.org/2000/svg" width="156" height="132" viewBox="0 0 156 132">
    <g fill="#FFF" fill-rule="evenodd" opacity=".5">
        <path d="M35.534 107.771c.876 1.041 1.68 1.868 2.762 2.378.29.137.585.188.789-.136.194-.31.057-.578-.172-.797a3.263 3.263 0 0 0-.54-.421c-.806-.5-1.682-.814-2.839-1.024zm147.074-.013c-1.297.265-2.346.616-3.244 1.326-.295.234-.562.537-.297.94.256.388.607.222.916.06 1.01-.528 1.793-1.308 2.625-2.326zm-159.781 18.13c-.329-.224-.579-.57-.926-.5-1.464.304-2.769.885-3.601 2.236-.611.992-.59 1.081.533 1.403.039.011.087-.008.13-.015 1.052-1.612 1.554-2.022 3.864-3.124zm143.542-68.414l.315.517c1.54 2.556 2.976 5.161 3.842 8.04 1.596 5.315 1.381 10.448-1.514 15.318-.055.092-.086.2-.172.407.554-.173 1.156.353 1.48-.426.475-1.142.978-2.273 1.472-3.408 1.262-2.897 1.42-5.933.862-8.972-.585-3.184-1.916-6.113-3.682-8.828-.678-1.041-1.57-1.9-2.603-2.648zm-31.65 15.832l9.357-3.93c-2.799-3.153-5.43-6.32-8.057-9.526-.527 4.538-1.02 8.967-1.3 13.456zM82.114 59.85a313.1 313.1 0 0 1-8.046 9.53c3.178 1.334 6.261 2.63 9.353 3.927-.282-4.502-.772-8.93-1.307-13.457zm2.433-31.388c-.12 1.783-.132 3.42-.109 5.1h49.265c.01-1.686.016-3.325-.101-5.1-16.35.24-32.72.243-49.055 0zm78.244 102.207c-35.847.14-71.618.136-107.452.001l.79 2.55c.128.022.172.038.217.037 8.872-.042 17.744-.11 26.617-.123 9.397-.014 18.795.056 28.193.028 10.798-.033 21.596-.071 32.395.028 6.006.054 12.013.04 18.02.068.288.001.469-.037.555-.35.199-.727.427-1.444.665-2.239zm-20.939-65.544c.988 1.222 1.83 2.393 2.809 3.436 1.106 1.178 1.452 2.537 1.403 4.087-.12 3.78-.105 7.564-.215 11.346-.25 8.685-.403 17.373-.447 26.062-.004.732-.079 1.464-.122 2.195-.02.337-.166.64-.527.578-.693-.119-1.367.043-2.05.047-5.639.028-11.28.094-16.919.114-14.696.05-29.393.033-44.089-.051-2.384-.014-4.77-.039-7.152-.11-1.726-.051-1.756-.088-1.781-1.808-.072-4.882-.083-9.767-.177-14.649-.152-7.907-.43-15.812-.516-23.72-.017-1.552.301-2.91 1.406-4.09.979-1.043 1.82-2.214 2.814-3.441-2.416.041-4.705-.11-6.953.048v50.726c26.529-.201 52.998-.2 79.49-.001V65.15c-2.296-.114-4.572-.005-6.974-.026zm-68.267 4.898c-.392.433-.52.998-.466 1.562.37 3.907.347 7.83.445 11.746.195 7.768.278 15.539.309 23.31 0 .166-.087.368.144.524 10.36-7.518 20.806-14.925 32.209-20.944-5.587-2.51-10.886-5.422-16.205-8.297-5.342-2.888-11.053-5.012-16.436-7.9zm38.328 16.2c11.432 6.032 21.876 13.452 32.358 21.044 0-1-.012-1.823.001-2.648.164-11.021.095-22.049.753-33.06.033-.559-.085-1.12-.48-1.534-5.377 2.885-11.068 5.002-16.391 7.88-5.338 2.885-10.657 5.806-16.241 8.317zm-55.71 43.22c.02.066.041.132.063.197 35.208-.216 70.416-.212 105.639-.085-.465-.55-.946-1.004-1.427-1.458-3.151-2.977-6.515-5.718-9.636-8.728-.677-.652-1.401-1.28-1.877-2.093-.285-.485-.61-.562-1.1-.56-2.981.016-5.962.012-8.943.005-15.821-.038-31.641.267-47.463.024-7.107-.11-14.217-.022-21.325-.014-.248 0-.536-.13-.731.205-.643 1.106-1.581 1.961-2.511 2.81-2.166 1.98-4.365 3.924-6.54 5.893-1.393 1.259-2.768 2.536-4.15 3.805zm17.668-17.53c23.492-.243 46.91-.242 70.399 0 0-.737-.045-1.468.011-2.193.068-.88-.184-1.403-.984-1.97-7.108-5.035-14.2-10.087-21.711-14.518-3.157-1.863-6.26-3.813-9.485-5.565-2.108-1.145-3.963-1.122-6.071.006-4.754 2.545-9.3 5.434-13.883 8.257-4.348 2.68-8.574 5.562-12.705 8.577-1.757 1.283-3.492 2.601-5.354 3.736-.158.096-.22.208-.22.385.004 1.096.003 2.19.003 3.285zm59.899-77.504c-16.536-.151-32.913-.15-49.347 0 0 .195.002.398 0 .602-.024 2.727-.069 5.455-.072 8.183-.01 9.351-.3 18.703-.028 28.055.02.71.048 1.42.082 2.13.01.203.003.492.238.52.54.06.88.465 1.33.671 3.377 1.553 6.581 3.433 9.858 5.174 3.698 1.966 7.247 4.218 11.142 5.81.413.168.771.221 1.174.017.587-.298 1.2-.32 1.788-.024.454.23.842.163 1.299-.026 2.632-1.088 5.096-2.496 7.59-3.856 4.464-2.436 8.874-4.973 13.465-7.171 1.475-.707 1.46-.745 1.491-2.428.046-2.452.09-4.905.126-7.357.126-8.574-.206-17.145-.138-25.719.013-1.531.002-3.063.002-4.58zm29.313 98.52c1.666.085 3.286-.1 4.909-.144 7.313-.197 14.628.014 21.942.007 1.834-.002 3.672-.083 5.5.08 1.108.097 1.782-.497 2.316-1.297.472-.707.335-1.721-.29-2.432-1.091-1.245-2.429-2.082-4.112-2.274-.297-.034-.631-.014-.732-.377-.099-.353.164-.556.412-.721.704-.471 1.448-.889 2.127-1.393 2.56-1.9 4.26-5.183 2.976-8.7-2.086-5.711-8.353-8.24-12.867-8.255-.595-.003-.992.236-1.362.726-.954 1.262-2.139 2.267-3.65 2.82-.76.276-1.42.1-1.796-.431-.418-.59-.363-1.35.177-1.96.21-.238.461-.448.722-.63.914-.638 1.92-1.129 3.016-1.269.968-.123 1.381-.646 1.714-1.482 1.33-3.348 1.267-6.75.584-10.211-.67-3.403-2.416-6.105-5.163-8.175a22.495 22.495 0 0 0-7.406-3.685c-.351-.1-.742-.293-1.066-.22-.84.187-1.578-.262-2.379-.262-.232 0-.448-.036-.648.128-.194.158-.437.237-.594-.018-.144-.232-.234-.548-.013-.768.493-.492.655-1.149.922-1.747 1.811-4.053 2.287-8.207 1.002-12.525-1.164-3.913-2.895-7.552-5.44-10.727-3.953-4.93-9.14-7.756-15.473-8.134-4.879-.29-9.345 1.302-13.576 3.619-.278.151-.3.359-.3.622.007.87.03 1.743-.006 2.614-.02.494.144.868.441 1.248 1.866 2.386 3.924 4.61 5.823 6.966.231.287.49.356.834.354 2.315-.015 4.63.005 6.946-.032.668-.01.965.296 1.094.879.13.585.14 1.181.14 1.778-.01 15.134-.017 30.27-.032 45.404-.002 1.283.059 2.57-.127 3.846-.031.217.03.327.182.463a90.33 90.33 0 0 1 1.974 1.815c3.875 3.676 7.893 7.203 11.672 10.982.415.415.476.8.324 1.287-.228.738-.472 1.472-.717 2.231zm-108.027.002c-.258-.802-.501-1.54-.731-2.28-.146-.47-.063-.835.324-1.223 4.02-4.026 8.282-7.793 12.438-11.673.952-.887 1.71-1.7 1.292-3.09-.031-.106-.004-.229-.004-.344-.016-4.884-.043-9.767-.046-14.651-.006-10.96.001-21.92.002-32.881 0-.574.015-1.149.148-1.709.13-.545.423-.846 1.06-.837 2.315.036 4.63.016 6.946.034.371.003.638-.086.887-.386 1.395-1.673 2.825-3.317 4.215-4.993 2.062-2.487 2.042-2.495 2.024-5.708-.003-.435-.16-.646-.525-.838a37.726 37.726 0 0 0-3.485-1.63c-8.59-3.477-16.42-2.249-23.274 4.03-3.854 3.528-6.087 8.109-7.506 13.075-.754 2.636-1.14 5.337-.414 8.073.563 2.123 1.11 4.25 2.36 6.109.157.234.078.49-.022.721-.073.17-.251.235-.405.15-.906-.504-1.848-.174-2.739-.046-3.323.475-6.235 1.965-8.9 3.932-2.613 1.929-4.401 4.444-5.106 7.67-.24 1.1-.447 2.2-.54 3.321-.235 2.788.072 5.489 1.278 8.052.202.43.446.664.951.748 1.23.203 2.393.627 3.428 1.345.263.182.52.382.737.613.584.623.665 1.397.24 2.009-.385.556-1.057.73-1.853.427-1.572-.597-2.773-1.679-3.766-3-.245-.327-.51-.467-.906-.504-1.638-.151-3.182.26-4.722.728-3.24.985-5.847 2.818-7.603 5.751-.837 1.397-1.41 2.917-1.272 4.568.23 2.723 1.646 4.75 3.92 6.212.558.359 1.116.72 1.663 1.095.228.157.458.352.377.675-.094.37-.422.359-.72.392-1.71.191-3.075 1.031-4.16 2.316-.857 1.017-.611 2.28.391 3.16.836.732 1.758.457 2.675.461 8.484.046 16.966-.213 25.45-.043 1.945.038 3.885.265 5.893.17zm136.19-25.552c1.984.872 3.827 1.944 5.325 3.554 1.747 1.88 2.975 4.005 3.228 6.605.15 1.546-.139 3.012-.892 4.377a4.66 4.66 0 0 0-.344.724 6.727 6.727 0 0 0 1.407-1.877c.11-.218.14-.56.489-.413.27.112.258.408.2.666-.12.547-.385 1.028-.7 1.482-.753 1.083-1.7 1.98-2.698 2.83-.148.127-.35.215-.418.485.468.218.955.415 1.377.728 1.02.76 1.405 1.761 1.208 3.013-.063.403-.04.82-.072 1.228-.074.93-.503 1.656-1.288 2.16-1.09.702-2.233 1.136-3.581 1.123-8.92-.084-17.838.24-26.758-.004-1.58-.044-3.165-.235-4.737-.15-.909.049-1.821.258-2.75.26-5.641.007-11.282.019-16.922.034-7.452.02-14.905.102-22.357.053-8.666-.056-17.333 0-25.999-.009-11.327-.01-22.655-.033-33.982-.052-1.01-.002-2.022.035-3.026-.038-6.556-.473-13.11.217-19.664-.001-4.882-.163-9.768-.097-14.651-.09-1.348.002-2.49-.433-3.579-1.131-.834-.535-1.271-1.319-1.282-2.302-.006-.47-.128-.668-.629-.757-1.559-.28-1.94-1.13-1.221-2.568.662-1.324 1.692-2.036 3.527-2.438.082-.15-.055-.203-.133-.265-2.637-2.09-3.376-4.83-2.79-8.043.445-2.436 1.46-4.572 3.25-6.31.279-.27.58-.523.903-.738.522-.348.718-.256.908.39 2.995-2.395 6.464-3.462 10.26-3.727.05-.048.027-.139-.01-.22-1.671-3.664-1.527-7.429-.645-11.242 1.015-4.385 3.56-7.631 7.377-9.917 2.353-1.409 4.81-2.581 7.562-2.975.677-.097 1.37-.084 2.087-.123-.013-.084-.001-.184-.042-.252-3.35-5.589-3.226-11.396-.91-17.248 1.966-4.972 4.722-9.443 9.205-12.59 7.48-5.251 15.358-5.84 23.588-1.898.185.09.365.191.55.282.037.02.086.017.223.039-.053-3.232-.173-6.445-.189-9.66-.015-3.187-.27-6.378.234-9.546l.25-.013.317 3.592c.174-2.074-.157-4.199.31-6.284.477.073.422.364.442.6.184 2.128.143 4.26.146 6.392.005 4.47-.32 8.935-.226 13.407.012.563-.204 1.107-.22 1.682-.015.513.15.817.618 1.008.143-.25.073-.503.073-.742.013-6.673.018-13.346.033-20.019.001-.572.051-1.144.103-1.714.078-.875.3-1.105 1.185-1.178a55.904 55.904 0 0 1 2.54-.147c6.097-.235 12.197-.097 18.295-.115 7.085-.021 14.17-.024 21.255.005 2.039.01 4.077.153 6.115.245.808.037 1.293.355 1.322 1.224.033 1.007.085 2.015.086 3.022.011 6.215.008 12.43.01 18.644v.785c.328-.059.462-.29.74-.477-.44-.155-.511-.458-.51-.853.019-5.503.016-11.006.028-16.51.003-1.1.067-2.198.257-3.284.052-.3.093-.639.479-.652.45-.014.378.385.416.656.286 2.003.283 4.025.318 6.039.062 3.644.168 7.292-.085 10.933-.076 1.09-.263 2.173-.407 3.318.731-.375 1.401-.77 2.11-1.074 8.979-3.844 17.19-2.538 24.586 3.788 1.372 1.173 2.702 2.358 4.234 3.345 3.035 1.955 4.72 4.965 6.062 8.223 2.326 5.65 1.847 11.097-1.028 16.41-.127.235-.334.442-.329.772 2.61.536 4.988 1.644 7.26 3.003 4.703 2.814 7.126 7.066 7.74 12.41.394 3.412.256 4.099-1.163 8.958 2.105-.055 4.053.598 6.019 1.172l-.02-.02z"/>
        <path d="M174.585 39.5c1.037-.103 1.658-.773 2.396-1.46-1.228.065-2.22.666-2.396 1.46zm-48.512-22.145c.244-1.91 1.145-3.476 2.203-4.957 1.893-2.649 4.317-4.743 7.037-6.49 4.063-2.607 8.4-4.594 13.182-5.462 5.899-1.07 11.533-.201 16.895 2.448 3.776 1.865 7.453 3.962 10.324 7.07 4.057 4.392 6.326 9.612 6.114 15.708a32.7 32.7 0 0 1-.926 6.724c-.371 1.503-1.04 2.873-1.916 4.245.694.064 1.31.068 1.906.183 6.422 1.234 10.231 6.539 11.03 11.673.626 4.014-.2 7.788-1.897 11.417-.193.413-.393.823-.625 1.309 3.939.521 6.478 2.913 8.013 6.289 1.545 3.399 1.032 6.89-.457 10.397.69-.25 1.264-.447 1.828-.664.259-.1.527-.283.734.03.21.32.002.584-.238.77-.867.67-1.84 1.106-2.933 1.25-.246.033-.495.044-.776.068-.19-.404-.278-.815-.145-1.291.158-.569.01-1.136-.158-1.69-.103-.34-.099-.673.307-.78.407-.11.572.202.67.526.085.284.137.577.233.991.494-1.065.672-2.09.75-3.116.321-4.186-1.06-7.648-4.45-10.237-1.025-.782-2.165-1.262-3.415-1.538-.966-.213-1.182-.648-.745-1.542 1.142-2.34 2.06-4.753 2.379-7.353.84-6.845-2.957-13.451-9.595-15.362-.44-.127-.892-.192-1.348-.25-1.151-.146-2.133.008-2.904 1.033-.463.616-1.156 1.039-1.893 1.333-.463.184-.92.214-1.24-.232-.305-.423-.201-.875.065-1.285.228-.351.548-.613.901-.835.61-.382 1.277-.704 1.977-.747.98-.061 1.413-.654 1.846-1.398 1.212-2.087 1.692-4.388 2.032-6.728.349-2.408.61-4.84.101-7.246-1.229-5.813-3.96-10.678-8.996-14.1-3.598-2.444-7.286-4.696-11.531-5.82-5.328-1.41-10.616-1.181-15.81.681-5.191 1.86-9.973 4.409-13.829 8.458-1.419 1.49-2.584 3.154-3.349 5.077-.236.596-.446 1.192-.378 1.864.053.527-.317.594-.734.507a11.596 11.596 0 0 1-2.16-.676c-4.986-2.11-9.725-1.174-14.345 1.174-.24.122-.436.331-.662.488-.228.16-.182.527-.523.648-.254-.332-.083-.646.063-.932.38-.744 1.033-1.216 1.73-1.626 1.893-1.113 3.993-1.575 6.126-1.923 3-.489 5.844-.078 8.486 1.484.256.15.535.262.805.386.06.027.13.027.241.049zM39.813 43.017c.021-.165.042-.215.03-.252-1.013-2.983-.03-5.418 2.173-7.423 2.29-2.084 5.107-2.976 8.142-3.27 2.115-.205 4.193.054 6.372.555-.7-1.3-1.731-2.2-2.537-3.28-.02.304.034.573.04.844.019.814-.297 1.007-1.016.644a5.044 5.044 0 0 0-.57-.238c-2.77-.99-5.605-1.128-8.46-.506-2.777.605-5.239 1.807-6.954 4.197-.844 1.177-1.308 2.48-1.029 3.944.424 2.226 1.928 3.608 3.809 4.785zm4.693 5.372c-.03-.179-.068-.357-.086-.537-.038-.368-.07-.752.238-1.027.35-.313.57.103.85.193.152.048.295.124.447.175 4.026 1.353 7.973 1.192 11.82-.649 1.517-.725 2.779-1.77 3.726-3.17 1.405-2.073 1.34-4.258-.17-6.25-.891-1.176-2.037-2.041-3.351-2.68-3.024-1.467-6.19-1.668-9.447-1.021-2.586.514-4.884 1.57-6.645 3.587-1.375 1.573-1.792 3.368-1.265 5.439.275 1.074.823 1.957 1.361 2.88.675 1.155 1.658 2.054 2.522 3.06zm1.022-.242c.208.737.378 1.35.556 1.96.088.302.143.599-.149.813-.324.24-.63.082-.871-.14-1.584-1.444-3.02-3.021-3.917-4.99-.31-.683-.658-1.153-1.389-1.444-1.663-.662-3.095-1.688-4.179-3.14-2.18-2.92-1.865-6.683.799-9.223 2.048-1.953 4.567-2.934 7.323-3.334 2.972-.432 5.893-.197 8.726.863.085.032.17.067.26.087.037.008.082-.02.19-.048-.172-.609-.34-1.217-.515-1.824-.092-.32-.17-.644.168-.865.334-.218.633-.042.87.178 1.587 1.474 3.049 3.056 3.928 5.067.284.649.63 1.073 1.32 1.333 1.34.507 2.515 1.311 3.52 2.345 2.976 3.06 2.819 7.47-.384 10.292-2.005 1.767-4.403 2.691-7.012 3.072-2.996.437-5.94.202-8.793-.87-.104-.04-.215-.063-.451-.132zM17.526 70.981c1.123 1.62 3.47 2.93 5.58 3.222 1.53.21 2.969.043 4.25-.877.732-.525.952-1.251.731-2.122-.418-1.64-1.688-2.74-3.424-2.92-2.81-.288-5.051.933-7.137 2.697zm-.712-.927c1.556-1.239 3.2-2.166 5.113-2.542 1.592-.313 3.15-.267 4.625.481 1.366.693 2.15 1.811 2.338 3.339.13 1.052-.248 1.887-1.086 2.517-1.968 1.48-4.173 1.64-6.474 1.09-1.642-.391-3.04-1.256-4.26-2.411-.166-.156-.33-.313-.575-.546-2.733 3.627-3.807 7.665-3.104 12.06.524 3.274 2.102 6.083 4.721 8.23.098-.85.224-1.66.083-2.472-.035-.2-.024-.365.15-.487.203-.143.402-.083.567.057.118.1.26.233.288.372.19.964.371 1.931.515 2.904.042.285-.137.576-.434.629-.874.151-1.517.729-2.25 1.142-.139.079-.273.172-.42.233-.333.136-.696.224-.92-.15-.213-.354-.036-.667.264-.896.252-.191.524-.355.784-.528-.011-.055-.004-.115-.028-.134-2.945-2.26-4.193-5.507-4.734-8.95-.733-4.66.37-8.97 3.485-12.644.186-.219.25-.377.074-.655-2.528-4.001-3.19-8.436-2.933-13.055.213-3.811 1.649-7.066 4.647-9.534 1.599-1.315 3.37-2.365 5.19-3.346 2.972-1.6 6.126-2.376 9.506-2.211.598.03 1.18.13 1.753.29.16.044.323.139.284.326-.042.2-.206.178-.385.146-3.24-.585-6.326-.02-9.291 1.314-2.013.906-3.87 2.072-5.618 3.426-2.932 2.273-4.527 5.283-4.773 8.937-.264 3.89.308 7.682 1.875 11.286.264.607.563 1.2 1.023 1.782z"/>
        <path d="M168.963 37.833c.62-.758 1.194-1.402 1.701-2.094.915-1.245 1.798-2.488 2.181-4.055.494-2.02.096-3.761-1.2-5.332-.965-1.17-2.178-2.038-3.555-2.644-3.575-1.57-7.26-1.825-10.991-.664-2.004.623-3.751 1.709-5.029 3.431-1.422 1.917-1.493 4.014-.204 6.024a8.785 8.785 0 0 0 2.773 2.724c2.897 1.812 6.085 2.343 9.43 2.028 1.481-.139 2.941-.45 4.27-1.19.426-.236.575.09.68.412.132.407-.039.812-.056 1.36zm-1.027-.429c-1.192.394-2.265.77-3.389.946-3.69.576-7.26.274-10.63-1.465a10.832 10.832 0 0 1-2.31-1.6c-3.118-2.825-3.269-7.165-.346-10.197 1.283-1.332 2.848-2.219 4.588-2.802 4.391-1.47 8.725-1.44 12.965.559 1.823.86 3.348 2.084 4.34 3.87 1.13 2.032 1.183 4.104.054 6.16-.245.446-.383.92-.554 1.388-.836 2.307-2.436 4.064-4.17 5.718-.249.237-.556.46-.923.23-.377-.238-.254-.593-.159-.928l.534-1.879zM19.753 100.453l2.983 1.787c.176.106.36.205.522.332.268.212.436.484.31.84-.128.363-.432.455-.777.424-1.45-.128-2.88.096-4.318.195-.425.03-.601.21-.726.573-.407 1.192-.836 2.377-1.255 3.565-.099.28-.188.565-.292.844-.159.429-.377.827-.919.759-.519-.065-.696-.475-.761-.934-.096-.68-.18-1.362-.258-2.044-.08-.702-.145-1.406-.223-2.174-1.09.115-2.128.23-3.168.333-.386.038-.776.06-1.164.07-.356.01-.716-.03-.824-.452-.105-.414.184-.628.488-.815 1.171-.718 2.33-1.46 3.523-2.142.529-.302.746-.597.594-1.248-.175-.752-.199-1.543-.238-2.32-.044-.853.414-1.14 1.182-.735.83.438 1.642.912 2.445 1.399.289.174.517.197.819.029.46-.255.945-.475 1.475-.544.68-.088 1.064.294.948.967-.072.42-.009.875-.366 1.291M23.803 56.585c.003.721.45 1.386.997 1.484.578.104 1.107-.335 1.345-1.124.193-.64-.15-1.26-.078-1.901.025-.222-.242-.234-.417-.269-.96-.194-1.85.68-1.847 1.81zm8.95 2.039c.197.233.035.4-.108.537-1.692 1.632-3.424 3.189-5.857 3.649-2.429.46-4.4-.306-5.9-2.217-1.37-1.744-1.911-3.776-1.5-5.954.486-2.563 2.141-4.207 4.616-4.85 2.52-.656 4.807-.037 6.52 2.008 1.573 1.877 1.195 4.731-.721 6.273-.961.773-1.88.688-3.021-.294-.244.105-.307.371-.46.554-1.084 1.3-2.918 1.131-3.727-.35-.642-1.176-.432-2.7.51-3.702.849-.903 2.118-1.176 3.212-.666.755.352 1.25.886 1.29 1.787.02.426.149.86.303 1.263.35.916 1.104 1.054 1.744.303.685-.803.837-1.78.644-2.785-.51-2.657-3.621-4.233-6.25-3.19-2.779 1.101-3.95 3.944-2.879 6.728.835 2.171 2.185 3.654 4.595 3.874 1.427.131 2.775-.25 4.023-.945.902-.503 1.731-1.118 2.515-1.792.132-.114.23-.294.452-.231zM100.583 9.613c.875 1.032 1.654 2.113 2.654 3.001.102.091.206.183.298.284.27.297.4.63.16.998-.243.372-.614.396-.976.231-.874-.399-1.737-.824-2.6-1.246-.329-.16-.648-.337-1.035-.541-.403.703-.584 1.46-.89 2.16-.212.485-.294 1.164-1.037 1.082-.78-.086-.649-.798-.706-1.303-.1-.886-.145-1.782-.155-2.674-.005-.456-.177-.652-.603-.746a31.03 31.03 0 0 1-2.059-.54c-.423-.125-.858-.298-.84-.853.016-.517.431-.67.837-.775a23.882 23.882 0 0 1 1.942-.438c.465-.079.667-.249.611-.76-.06-.544-.033-1.1-.002-1.647.017-.293.088-.612.44-.708.361-.1.526.142.703.406.345.513.759.982 1.076 1.51.268.445.588.5 1.035.363.438-.134.884-.244 1.333-.335.381-.079.754-.022.96.352.204.368.076.706-.196 1.003-.323.354-.686.676-.95 1.176M58.826 26.356c.175-2.306 1.018-4.36 2.465-6.145 2.833-3.496 6.591-5.43 10.967-6.123 5.463-.865 10.343.679 14.682 3.998 1.914 1.465 2.896 3.558 3.513 5.838.078.289.066.59-.272.675-.327.083-.418-.208-.482-.455-.652-2.52-2.063-4.545-4.19-5.995-7.573-5.163-17.371-3.795-22.962 2.306-1.536 1.674-2.525 3.638-2.928 5.887-.074.41-.1.82-.026 1.227.035.196.091.39-.147.448-.215.052-.323-.14-.39-.312a3.34 3.34 0 0 1-.23-1.35M29.552 92.828c1.435-3.54 4.062-6.053 6.744-8.503 2.77-2.531 5.985-4.196 9.828-4.64a16.735 16.735 0 0 1-1.193-3.731c-.622-3.23-.202-6.38.65-9.507.428-1.57.882-3.13 1.648-4.576.134-.253.22-.75.631-.556.418.197.067.56-.036.83-2.12 5.506-2.773 11.08-.778 16.777.133.382.215.8.75.86.172.02.362.224.247.412-.187.306-.486.637-.837.61-2.226-.166-4.263.534-6.172 1.499-4.6 2.325-8.305 5.656-10.862 10.186-.094.166-.131.414-.62.339M65.808 43.839c.9.207 1.239 1.117.702 1.87-.158.222-.363.351-.645.286-.288-.067-.41-.274-.42-.553-.013-.394.075-.795-.332-1.096-.15-.112-.054-.389 0-.59.957-3.587-.503-6.434-2.797-9.001-.914-1.024-2.127-1.563-3.461-1.833-.228-.047-.497-.057-.512-.35-.012-.255.195-.397.418-.49.463-.196.94-.174 1.415-.063 1.393.324 2.533 1.088 3.41 2.182 2.174 2.715 3.104 5.766 2.294 9.236-.031.132-.048.268-.072.402M28.786 87.586c-.356-1.319-.865-1.89-1.647-1.887-1.098.003-2.309 1.025-2.651 2.277l4.298-.39zm-4.253 1.603c-.017 0-.133.008-.246-.002-1.129-.094-1.39-.495-.918-1.518.691-1.5 1.584-2.795 3.384-3.106 1.034-.179 1.845.141 2.443 1.003.49.708.726 1.53.977 2.333.167.531-.219.8-.69.908-.967.219-1.961.12-2.939.232-.635.073-1.276.097-2.01.15zM3.373 93.756c-.777 0-1.555.012-2.332-.004-.489-.011-.936-.171-1.027-.72-.094-.565.308-.838.77-.978 1.576-.476 3.174-.87 4.808-1.088a2.766 2.766 0 0 1 1.608.244c.923.455 1.033 1.404.221 2.037-.662.516-1.45.645-2.266.651-.594.005-1.188.001-1.782.001v-.143M133.979 26.596c-.425.392-.926.353-1.381.374-2.156.096-4.308-.058-6.46-.161-1.898-.091-3.794-.246-5.691-.352a282.103 282.103 0 0 0-15.874-.467c-3.897.001-7.786.165-11.673.425-.233.016-.48.082-.869-.145.573-.084.982-.18 1.395-.2 4.234-.21 8.468-.395 12.71-.353 2.796.027 5.593.019 8.389.053 4.424.053 8.84.307 13.258.512 1.786.083 3.576.063 5.364.09.268.004.555-.085.832.224M109.205 6.996c-.59.018-.975-.447-.863-1.045.066-.35.28-.627.485-.898 1.214-1.595 2.646-2.973 4.252-4.166.48-.356.999-.652 1.638-.611.373.024.694.144.78.54.089.41-.147.633-.53.743-.461.134-.759.499-1.084.817-1.211 1.188-2.218 2.56-3.378 3.794-.358.381-.724.776-1.3.826M139.743 37.344c.006-.401.15-.766.329-1.11 1.149-2.217 2.304-4.43 3.466-6.64.093-.177.221-.362.382-.474.408-.284.92-.015.925.486.002.197-.064.405-.137.593-.908 2.303-1.946 4.548-3.019 6.777a5.019 5.019 0 0 1-.592.92.75.75 0 0 1-.929.24c-.34-.143-.436-.445-.425-.792M75.578 40.628c-.015.3-.064.629-.41.776-.357.152-.674.04-.929-.244-.106-.119-.217-.24-.296-.378-1.302-2.278-2.976-4.29-4.557-6.367a5.508 5.508 0 0 1-.354-.507c-.166-.28-.213-.574.073-.804.285-.229.582-.142.799.102 1.766 1.984 3.657 3.862 5.184 6.05.28.401.455.847.49 1.372M29.25 81.16a1.033 1.033 0 0 0-.214-.568c-.478-.654-1.921-.848-2.557-.344-.819.647-.757 1.29.172 1.776.368.191.763.31 1.172.352.785.08 1.45-.498 1.426-1.217zm-1.855-2.452c.715.043 1.407.181 2.011.592.657.446.995 1.09.921 1.875-.088.933-.594 1.621-1.457 2.008-1.17.525-2.823.104-3.609-.898-.517-.66-.615-1.413-.233-2.122.487-.907 1.23-1.535 2.367-1.455zM43.025 63.541c-.006 1.202-.941 2.19-2.084 2.203-1.06.011-1.91-.8-1.913-1.827-.005-1.136 1.115-2.314 2.196-2.31 1.017.003 1.808.852 1.801 1.934M111.56 11.226c-.822.006-1.22-.538-1.042-1.182.14-.512.495-.873.902-1.18 1.338-1.01 2.81-1.815 4.213-2.724.314-.203.662-.243.93.082.266.32.193.667-.083.928-1.417 1.336-2.86 2.644-4.402 3.837-.2.155-.443.241-.518.239M6.418 87.856c-.723-.004-1.322-.289-1.861-.691-1.048-.78-2.08-1.582-3.114-2.381a2.316 2.316 0 0 1-.386-.39c-.153-.193-.19-.419-.061-.64.136-.233.362-.264.602-.22.11.02.22.062.325.105 1.507.617 2.963 1.341 4.408 2.09.222.115.43.262.636.407.373.261.704.571.535 1.079-.173.515-.628.62-1.084.641M77.957 36.828c-.023.41-.102.78-.541.875-.474.103-.729-.203-.87-.597-.39-1.082-.502-2.228-.747-3.343-.235-1.072-.444-2.15-.77-3.2-.111-.358-.23-.764.245-.93.465-.162.648.206.782.566.761 2.038 1.343 4.13 1.843 6.246.032.133.042.27.058.383M142.966 42.09c-.243-.01-.458-.092-.58-.308a.714.714 0 0 1 .039-.78c.232-.353.581-.58.93-.799 1.738-1.099 3.48-2.191 5.22-3.287.284-.18.597-.354.836.012.217.333-.064.557-.299.737-1.792 1.381-3.676 2.641-5.395 4.117a1.31 1.31 0 0 1-.751.308M7.055 79.632c-.05.536-.312.884-.894.923a1.66 1.66 0 0 1-1.04-.293c-.788-.524-1.472-1.161-1.98-1.966-.194-.309-.272-.652.01-.95.26-.273.577-.213.886-.064.699.337 1.477.494 2.124.948.486.342.857.757.894 1.402M49.188 58.762c-.32-.052-.312-.312-.227-.518.155-.378.34-.75.564-1.091 1.09-1.652 2.671-2.807 4.154-4.059.332-.28.678-.543 1.02-.812.115-.091.247-.138.366-.02.119.118.083.256-.013.368a5.244 5.244 0 0 1-.425.447c-1.787 1.644-3.47 3.385-4.957 5.31-.123.158-.229.35-.482.375M29.189 96.056c.239.824.164 1.556.208 2.28.062.997-.18 2.01.16 2.993.04.118.013.241-.086.31-.126.09-.258.042-.38-.04a.792.792 0 0 1-.331-.509c-.305-1.598-.206-3.188.152-4.766.016-.07.12-.12.277-.268M67.046 82.806c.302.162.185.444.186.678.033 9.879.035 19.758-.052 29.637-.01 1.1-.006 2.2-.035 3.3-.007.263.105.688-.35.684-.417-.003-.366-.391-.389-.681-.274-3.547-.159-7.102-.155-10.652.005-5.706.098-11.414.19-17.12.028-1.762.056-3.527.255-5.282.028-.245-.012-.528.35-.564M52.692 93.946c.711 0 1.26.555 1.251 1.266-.008.672-.557 1.252-1.196 1.264-.701.014-1.358-.612-1.344-1.282a1.283 1.283 0 0 1 1.289-1.248M57.702 92.644c.508.015.887.42.881.941-.006.587-.522 1.1-1.097 1.09a.944.944 0 0 1-.933-.975c.024-.555.588-1.073 1.149-1.056M151.767 113.076c-.458-.096-.43-.39-.464-.66-.136-1.048-.12-2.103-.13-3.155-.055-5.178-.253-10.352-.447-15.525-.093-2.495-.295-4.985-.256-7.484a8.243 8.243 0 0 1 .147-1.5c.046-.233.101-.44.443-.552 1.062 9.628 1.037 19.233.707 28.876M110.094 49.319c-.349-.462-.641-.768-1.134-.698-.39.056-.665.275-.832.717.656-.11 1.244-.072 1.966-.02zm.974 17.785h-3.98c.473.803 1.03 1.326 1.898 1.363.943.04 1.543-.51 2.082-1.363zm5.027-2.79c-.138-.12-.217-.2-.308-.266-1.239-.886-1.717-1.997-1.405-3.567.436-2.193.195-4.367-.616-6.48-.69-1.802-1.826-3.15-3.616-3.92-.665-.286-1.337-.34-2-.064-1.463.61-2.62 1.56-3.339 3.013-1.239 2.498-1.514 5.114-1.01 7.828.201 1.088-.05 1.991-.903 2.715-.285.242-.557.5-.844.758 3.325 2.334 10.873 2.321 14.04-.017zm-.552-5.65c.07.792.006 1.62-.172 2.424-.188.847.105 1.475.689 2.03.199.189.4.38.617.545.965.733.916.534.121 1.43-.34.383-.795.625-1.268.8-1.028.381-2.02.88-3.123 1.025-.301.04-.346.247-.431.457-.509 1.261-1.593 2.002-2.918 1.997-1.324-.005-2.381-.734-2.898-2.021-.102-.255-.217-.391-.518-.447-1.222-.23-2.355-.73-3.49-1.222-.545-.236-.89-.703-1.294-1.097-.264-.256-.03-.452.184-.606.464-.338.912-.691 1.288-1.13.396-.46.566-.955.459-1.58-.521-3.05-.175-5.975 1.333-8.718.67-1.217 1.595-2.172 2.871-2.756.257-.118.424-.222.467-.572.098-.779.696-1.185 1.588-1.19.935-.004 1.523.396 1.635 1.214.044.316.183.419.423.528 1.346.612 2.32 1.615 2.983 2.92.947 1.863 1.564 3.81 1.454 5.97zM119.06 55.38c-.16 0-.32.009-.478-.003-.263-.019-.51-.09-.574-.39-.07-.321.113-.521.385-.642.985-.439 2.025-.698 3.073-.921.511-.11 1.036-.158 1.557-.213.351-.038.729-.027.84.395.106.404-.228.543-.522.685-1.354.652-2.798.955-4.281 1.089M98.844 55.38c-1.278-.14-2.706-.444-4.045-1.089-.297-.143-.632-.284-.52-.69.116-.422.494-.419.849-.391 1.498.112 2.932.498 4.336 1.012.343.124.752.255.664.737-.09.494-.535.403-.888.437-.068.006-.138-.004-.396-.016M100.135 51.661a1.297 1.297 0 0 1-.717-.199c-1.018-.677-1.896-1.497-2.54-2.546-.164-.267-.354-.59-.037-.865.295-.256.567-.007.796.157.909.65 1.765 1.368 2.579 2.135.202.19.355.423.41.698.08.39-.07.62-.491.62M118.055 51.66c-.455.018-.634-.206-.534-.638a.979.979 0 0 1 .203-.427c.897-.98 1.928-1.804 3.031-2.538.17-.113.375-.181.566 0 .155.147.18.342.097.504-.689 1.363-1.716 2.392-3.094 3.06-.078.038-.18.028-.27.04M122.197 59.761c-.857.063-1.685-.115-2.503-.343-.264-.072-.531-.167-.707-.397-.219-.286-.274-.581.168-.667 1.4-.27 2.782-.189 4.122.316.287.108.522.336.45.687-.078.37-.396.4-.705.403-.275.004-.55.001-.825.001M95.918 59.752c-.32 0-.641.003-.961 0-.25-.004-.456-.102-.534-.352-.09-.285.069-.481.283-.64.266-.198.584-.265.895-.334 1.038-.228 2.086-.29 3.139-.129.228.035.553.014.558.378.003.32-.235.499-.493.601a6.86 6.86 0 0 1-2.887.476M66.198 123.76c28.647-.068 57.1-.069 85.739 0-1.775-1.568-3.211-3.263-5.007-4.576-.22-.161-.475-.145-.726-.145-1.1-.004-2.2-.01-3.301-.011-13.388-.02-26.774.226-40.163.143-10.201-.064-20.404-.088-30.606-.139-.476-.002-.886.076-1.27.388-1.603 1.304-2.984 2.842-4.666 4.34zm87.44.423a5.3 5.3 0 0 1-1.538.217c-13.873 0-27.746.03-41.62.03-14.81-.001-29.62-.029-44.43-.032-.498 0-.97-.026-1.527-.224 1.297-1.233 2.53-2.42 3.78-3.591.802-.752 1.532-1.658 2.473-2.165.954-.515 2.13-.044 3.21-.064 11.417-.218 22.837-.187 34.255-.192 11.004-.005 22.01-.03 33.014.157 1.875.033 3.75.085 5.621-.1.197-.019.358.012.508.142 2.138 1.833 4.114 3.838 6.255 5.822zM137.939 84.946c.028.724-1.013 1.567-1.677 1.39-.294-.08-.387-.286-.392-.564-.014-.68.725-1.417 1.414-1.423.433-.003.613.233.655.597M136.168 83.418c-.345-.087-.785-.145-.805-.689-.019-.487.72-1.086 1.318-1.076.447.008.74.214.751.696.014.545-.588 1.073-1.264 1.07M79.095 95.253c-.77.007-1.258-.392-1.294-.978-.037-.596.388-1.062 1.058-1.113.591-.045 1.186.046 1.78-.079.259-.054.498.092.614.347.136.3.082.592-.131.834-.56.642-1.312.886-2.027.989M79.85 92.342c-.525.048-.988-.05-1.043-.683-.042-.474.263-.706.71-.747.602-.055 1.331.42 1.304.859-.04.643-.541.554-.97.571M129.881 30.39c.283-.076.33.172.48.254.188-.002.166-.192.253-.286.118-.128.246-.21.42-.12.202.108.25.322.132.466-.31.38-.347.77-.063 1.269-.492-.095-.598-.71-1.097-.406l-.125-1.177"/>
    </g>
</svg>
